<svg xmlns="http://www.w3.org/2000/svg" width="32" height="32" viewBox="0 0 32 32"><g transform="translate(421.746 -1366.834)"><path fill="none" stroke="#2b4255" stroke-linecap="round" stroke-linejoin="round" d="M-419.74644 1391.8621l8 0M-398.25356 1391.8622l8 0M-402.31239 1391.8622l2.05883 0"/><g transform="translate(0 1.104)"><path fill="none" stroke="#f8b84e" stroke-linecap="round" stroke-linejoin="round" d="m -404.6372,1383.3601 4.41809,-7.0346"/><ellipse cx="-395.782" cy="1385.281" fill="none" stroke="#25b39e" stroke-linecap="round" stroke-linejoin="round" style="isolation:auto;mix-blend-mode:normal" color="#000" overflow="visible" rx="5.536" ry="5.477"/><ellipse cx="-415.711" cy="1385.281" fill="none" stroke="#25b39e" stroke-linecap="round" stroke-linejoin="round" style="isolation:auto;mix-blend-mode:normal" color="#000" overflow="visible" rx="5.536" ry="5.477"/><path fill="none" stroke="#f8b84e" stroke-linecap="round" stroke-linejoin="round" d="M-416.525 1384.689l6.07105-9.0868M-409.97507 1376.2438l9.71221 0"/><path fill="none" stroke="#f05542" stroke-linecap="round" stroke-linejoin="round" d="m -406.31115,1383.2626 -4.75644,-8.9165 1.71922,0 c 0.51269,0 0.76588,0.2801 0.83239,0.5257"/><ellipse cx="-415.711" cy="1385.281" fill="none" stroke="#2b4255" stroke-linecap="round" stroke-linejoin="round" style="isolation:auto;mix-blend-mode:normal" color="#000" overflow="visible" rx="1.011" ry="1"/><path fill="none" stroke="#2b4255" stroke-linecap="round" stroke-linejoin="round" d="M-415.7144 1384.2821l9.58986-.9775M-415.7144 1386.2877l9.58986.9774"/><path fill="none" stroke="#2b4255" stroke-linecap="round" stroke-linejoin="round" stroke-width="1.816" d="M817.52232 838.5705l0 4.24435M819.03147 842.85362l-3.0183 0" transform="matrix(.5499 .06302 -.0637 .54407 -802.014 879.654)"/><path fill="none" stroke="#2b4255" stroke-linecap="round" stroke-linejoin="round" stroke-width="1.816" d="M817.52232 838.5705l0 4.24435M819.03147 842.85362l-3.0183 0" transform="matrix(-.5499 -.06302 .0637 -.54407 -9.404 1891.009)"/><ellipse cx="-405.746" cy="1385.521" fill="#25b39e" color="#000" overflow="visible" rx="2.5" ry="2.473" style="isolation:auto;mix-blend-mode:normal"/><ellipse cx="-405.746" cy="1385.521" fill="#25b39e" stroke="#2b4255" stroke-linecap="round" stroke-linejoin="round" style="isolation:auto;mix-blend-mode:normal" color="#000" overflow="visible" rx="1" ry=".987"/><path fill="none" stroke="#f05542" stroke-linecap="round" stroke-linejoin="round" d="m -396.00878,1384.1789 -5.83281,-10.921 2.34291,-0.024 c 1.86356,-0.1181 2.21756,2.2549 0.50961,2.2608 l -0.36939,0"/><ellipse cx="-395.782" cy="1385.281" fill="none" stroke="#2b4255" stroke-linecap="round" stroke-linejoin="round" style="isolation:auto;mix-blend-mode:normal" color="#000" overflow="visible" rx="1.011" ry="1"/></g></g></svg>